HIERARCHY
ROOT Hips
{
	OFFSET 0.00000 0.00000 0.00000
	CHANNELS 6 Xposition Yposition Zposition Zrotation Yrotation Xrotation 
	JOINT LHipJoint
	{
		OFFSET 0 0 0
		CHANNELS 3 Zrotation Yrotation Xrotation
		JOINT LeftUpLeg
		{
			OFFSET 1.53794 -1.55850 0.93568
			CHANNELS 3 Zrotation Yrotation Xrotation
			JOINT LeftLeg
			{
				OFFSET 2.28545 -6.27922 0.00000
				CHANNELS 3 Zrotation Yrotation Xrotation
				JOINT LeftFoot
				{
					OFFSET 2.37329 -6.52057 0.00000
					CHANNELS 3 Zrotation Yrotation Xrotation
					JOINT LeftToeBase
					{
						OFFSET 0.14846 -0.40788 2.09160
						CHANNELS 3 Zrotation Yrotation Xrotation
						End Site
						{
							OFFSET 0.00000 -0.00000 1.07536
						}
					}
				}
			}
		}
	}
	JOINT RHipJoint
	{
		OFFSET 0 0 0
		CHANNELS 3 Zrotation Yrotation Xrotation
		JOINT RightUpLeg
		{
			OFFSET -1.78290 -1.55850 0.93568
			CHANNELS 3 Zrotation Yrotation Xrotation
			JOINT RightLeg
			{
				OFFSET -2.24144 -6.15831 0.00000
				CHANNELS 3 Zrotation Yrotation Xrotation
				JOINT RightFoot
				{
					OFFSET -2.35091 -6.45907 0.00000
					CHANNELS 3 Zrotation Yrotation Xrotation
					JOINT RightToeBase
					{
						OFFSET -0.14428 -0.39641 2.07944
						CHANNELS 3 Zrotation Yrotation Xrotation
						End Site
						{
							OFFSET -0.00000 -0.00000 1.06864
						}
					}
				}
			}
		}
	}
	JOINT LowerBack
	{
		OFFSET 0 0 0
		CHANNELS 3 Zrotation Yrotation Xrotation
		JOINT Spine
		{
			OFFSET -0.08841 2.11430 -0.15818
			CHANNELS 3 Zrotation Yrotation Xrotation
			JOINT Spine1
			{
				OFFSET -0.00033 2.12605 -0.08097
				CHANNELS 3 Zrotation Yrotation Xrotation
				JOINT Neck
				{
					OFFSET 0 0 0
					CHANNELS 3 Zrotation Yrotation Xrotation
					JOINT Neck1
					{
						OFFSET 0.04431 1.59447 0.43193
						CHANNELS 3 Zrotation Yrotation Xrotation
						JOINT Head
						{
							OFFSET 0.00455 1.62017 -0.58852
							CHANNELS 3 Zrotation Yrotation Xrotation
							End Site
							{
								OFFSET -0.00920 1.72955 -0.25850
							}
						}
					}
				}
				JOINT LeftShoulder
				{
					OFFSET 0 0 0
					CHANNELS 3 Zrotation Yrotation Xrotation
					JOINT LeftArm
					{
						OFFSET 2.86490 1.49927 -0.33774
						CHANNELS 3 Zrotation Yrotation Xrotation
						JOINT LeftForeArm
						{
							OFFSET 4.87408 -0.00000 0.00000
							CHANNELS 3 Zrotation Yrotation Xrotation
							JOINT LeftHand
							{
								OFFSET 2.76729 -0.00000 0.00000
								CHANNELS 3 Zrotation Yrotation Xrotation
								JOINT LeftFingerBase
								{
									OFFSET 0 0 0
									CHANNELS 3 Zrotation Yrotation Xrotation
									JOINT LeftHandIndex1
									{
										OFFSET 0.98922 -0.00000 0.00000
										CHANNELS 3 Zrotation Yrotation Xrotation
										End Site
										{
											OFFSET 0.79753 -0.00000 0.00000
										}
									}
								}
								JOINT LThumb
								{
									OFFSET 0 0 0
									CHANNELS 3 Zrotation Yrotation Xrotation
									End Site
									{
										OFFSET 0.80972 -0.00000 0.80972
									}
								}
							}
						}
					}
				}
				JOINT RightShoulder
				{
					OFFSET 0 0 0
					CHANNELS 3 Zrotation Yrotation Xrotation
					JOINT RightArm
					{
						OFFSET -2.94414 1.45463 -0.25291
						CHANNELS 3 Zrotation Yrotation Xrotation
						JOINT RightForeArm
						{
							OFFSET -4.71404 -0.00000 0.00000
							CHANNELS 3 Zrotation Yrotation Xrotation
							JOINT RightHand
							{
								OFFSET -2.83468 -0.00000 0.00000
								CHANNELS 3 Zrotation Yrotation Xrotation
								JOINT RightFingerBase
								{
									OFFSET 0 0 0
									CHANNELS 3 Zrotation Yrotation Xrotation
									JOINT RightHandIndex1
									{
										OFFSET -0.86820 -0.00000 0.00000
										CHANNELS 3 Zrotation Yrotation Xrotation
										End Site
										{
											OFFSET -0.69996 -0.00000 0.00000
										}
									}
								}
								JOINT RThumb
								{
									OFFSET 0 0 0
									CHANNELS 3 Zrotation Yrotation Xrotation
									End Site
									{
										OFFSET -0.71065 -0.00000 0.71065
									}
								}
							}
						}
					}
				}
			}
		}
	}
}
MOTION
Frames: 12
Frame Time: .0083333
1.0392 16.382 25.6702 0 0 0 0 0 0 -21 0 0 0 0 0 0 0 0 0 0 0 0 0 0 21 0 0 0 0 0 0 0 0 0 0 0 0 0 0 0 0 0 0 0 0 0 0 -16 0 0 21 0 0 11 0 0 0 -8 0 0 0 0 0 0 0 0 0 0 0 0 0 0 0 0 0 0 0 0 8 0 0 0 0 0 0 0 0 0 0 0 0 0 0 0 0 0
1.0392 16.3820 25.6702 -179.8160 2.0907 -171.4950 0.0000 0.0000 0.0000 -17.1263 -14.1950 -30.5151 2.2333 9.3359 26.8519 0.7190 12.7413 16.4112 0.1186 -2.2198 -6.1136 0.0000 0.0000 0.0000 23.3032 -1.3916 5.4961 -5.3839 -13.8035 42.4560 -0.1212 -24.7367 18.2560 -0.4268 4.1928 -11.6198 -1.9618 4.9624 -4.3142 -1.8281 6.8097 0.4217 -0.3336 3.3921 2.8376 -4.0115 -3.5362 -38.7803 3.3455 -7.5400 41.7562 -0.0920 -3.3992 27.3748 0.0000 -0.0000 0.0000 -65.9219 33.5662 57.9047 113.9681 -57.7140 -80.5977 -0.0000 -0.0000 18.4544 12.2497 3.7088 0.8046 -7.1250 0.0000 -0.0000 -11.7183 33.6000 3.3351 0.0000 -0.0000 0.0000 79.0649 -6.3707 60.9976 -107.4362 58.8195 -75.0403 0.0000 0.0000 6.6994 -10.7622 0.2961 -0.0563 7.1250 -0.0000 -0.0000 12.3467 -29.5644 4.7473
1.0218 16.2765 25.3375 -180.0850 1.8300 -171.9300 0.0000 0.0000 0.0000 -18.1149 -13.7176 -29.5811 2.4557 9.7570 28.1932 0.2190 13.2864 11.8577 0.0916 -1.9519 -5.3728 0.0000 0.0000 0.0000 22.7630 -1.7966 4.4396 -6.2491 -14.6655 45.9736 0.0742 -24.0487 16.4523 -0.4833 4.4580 -12.3687 -2.2784 4.4308 -4.1630 -1.5092 6.1115 0.9615 0.1335 3.0254 3.2451 -4.1492 -3.3997 -40.6024 2.8473 -6.6174 41.7441 -0.0695 -3.1125 28.0275 0.0000 -0.0000 0.0000 -67.8015 32.2787 56.8653 112.7864 -57.9442 -79.5974 -0.0000 -0.0000 18.3034 12.7113 3.4977 0.7884 -7.1250 0.0000 -0.0000 -11.3163 33.4058 3.2709 0.0000 -0.0000 0.0000 78.2850 -6.6523 60.7964 -106.5803 58.9353 -74.3076 0.0000 0.0000 5.9309 -10.6117 0.0380 -0.0071 7.1250 -0.0000 -0.0000 12.4951 -29.8185 4.7292
1.0050 16.1718 25.0080 -180.4270 1.5896 -172.2850 0.0000 0.0000 0.0000 -19.1280 -13.1458 -28.7740 2.7721 10.3167 30.0085 -0.0582 13.3448 8.6198 0.1594 -2.5722 -7.0898 0.0000 0.0000 0.0000 22.1113 -2.1121 3.1970 -7.1551 -15.4611 49.4585 0.2709 -23.8959 14.9214 -0.5037 4.5498 -12.6289 -2.6894 4.1827 -3.9963 -1.4798 5.8015 1.0573 0.3592 2.8643 3.2119 -4.2951 -3.3858 -40.2956 3.0180 -6.6370 41.7419 0.0596 -3.1441 27.9277 0.0000 0.0000 0.0000 -68.2451 31.4061 57.1778 111.9682 -58.0956 -78.9033 -0.0000 -0.0000 18.4874 12.6348 3.3763 0.7564 -7.1250 0.0000 -0.0000 -11.3603 33.2810 3.3191 0.0000 0.0000 0.0000 78.3352 -7.9448 59.9009 -104.9199 59.1419 -72.8838 0.0000 0.0000 6.8069 -11.3098 -0.4657 0.0931 7.1250 -0.0000 -0.0000 12.0170 -30.3319 4.3899
0.9873 16.0802 24.6824 -180.8010 1.2348 -172.5870 0.0000 0.0000 0.0000 -19.9487 -13.4327 -27.6792 3.0807 10.8245 31.6904 -0.2836 14.2064 6.1950 0.1665 -2.6290 -7.2474 0.0000 0.0000 0.0000 21.4653 -2.3132 1.7050 -8.0801 -16.1779 52.8507 0.2617 -23.2520 14.4714 -0.5566 4.7790 -13.2792 -2.9240 3.8985 -3.6226 -1.6462 5.4318 1.0074 0.2648 2.6861 2.9535 -4.1210 -3.2322 -39.6744 3.2155 -6.6572 41.5872 0.1541 -3.1151 27.4689 -0.0000 0.0000 0.0000 -68.5047 30.4216 57.6179 110.7525 -58.3085 -77.8701 -0.0000 -0.0000 18.3639 12.9351 3.3619 0.7717 -7.1250 0.0000 -0.0000 -11.1172 33.2773 3.2467 -0.0000 0.0000 0.0000 79.0044 -9.8230 58.5744 -102.9791 59.3538 -71.2159 0.0000 0.0000 7.5500 -11.7352 -0.4602 0.0956 7.1250 -0.0000 -0.0000 11.6851 -30.3341 4.2634
0.9706 15.9754 24.3604 -181.2010 0.9284 -172.8950 0.0000 0.0000 0.0000 -20.8478 -13.4460 -26.7483 3.4062 11.3253 33.3849 -0.5209 15.1649 3.3502 0.1749 -2.6937 -7.4271 0.0000 0.0000 0.0000 20.7634 -2.4993 0.3194 -9.0493 -16.8394 56.2606 0.3395 -22.8091 13.4982 -0.5872 4.9064 -13.6417 -3.2901 3.5972 -3.3276 -1.7069 5.0460 1.0823 0.3650 2.4925 2.8487 -4.1406 -3.1571 -39.4180 3.3739 -6.5924 41.4559 0.2848 -3.0847 27.2144 -0.0000 -0.0000 0.0000 -69.0824 29.2610 57.8592 109.4712 -58.5178 -76.7787 -0.0000 -0.0000 18.2214 13.1521 3.3529 0.7830 -7.1250 0.0000 -0.0000 -10.9417 33.2761 3.1941 -0.0000 -0.0000 0.0000 79.3809 -11.3164 57.3196 -101.0614 59.5326 -69.5644 0.0000 0.0000 8.0119 -12.1045 -0.6241 0.1338 7.1250 -0.0000 -0.0000 11.4170 -30.5050 4.1143
0.9553 15.8723 24.0448 -181.6660 0.6221 -173.1850 0.0000 0.0000 0.0000 -21.8021 -13.4617 -25.7936 3.7227 11.7820 34.9649 -0.7284 16.2032 0.7933 0.1750 -2.6944 -7.4291 0.0000 0.0000 0.0000 19.9875 -2.6020 -1.1876 -10.0643 -17.4459 59.7031 0.4093 -22.3813 12.5574 -0.6069 4.9865 -13.8701 -3.7231 3.3207 -2.9862 -1.8224 4.6961 1.1438 0.4474 2.3187 2.7062 -4.1420 -3.1049 -39.0174 3.6024 -6.6198 41.2669 0.4242 -3.0726 26.8529 0.0000 -0.0000 0.0000 -69.6184 27.9203 58.2017 107.9921 -58.7408 -75.5157 -0.0000 -0.0000 18.0855 13.3361 3.4540 0.8182 -7.1250 0.0000 -0.0000 -10.8078 33.3847 3.1249 0.0000 -0.0000 0.0000 79.9659 -12.8819 55.7878 -98.7969 59.7056 -67.6108 0.0000 0.0000 8.4765 -12.5287 -0.7816 0.1737 7.1250 -0.0000 -0.0000 11.1043 -30.6711 3.9527
0.9422 15.7723 23.7355 -182.2180 0.3481 -173.4790 0.0000 0.0000 0.0000 -22.8561 -13.3773 -24.7705 4.0023 12.1635 36.3127 -0.9131 17.2431 -1.5462 0.1637 -2.6071 -7.1866 0.0000 0.0000 0.0000 19.1058 -2.6112 -2.7996 -11.1223 -17.9944 63.1782 0.4765 -21.9362 11.5747 -0.6202 5.0397 -14.0217 -4.2480 3.0524 -2.5664 -1.9860 4.3602 1.2259 0.5315 2.1536 2.5417 -4.1229 -3.0666 -38.6721 3.8599 -6.6781 41.0332 0.5653 -3.0567 26.4799 -0.0000 -0.0000 0.0000 -70.2006 26.3769 58.5588 106.2870 -58.9736 -74.0564 -0.0000 -0.0000 17.8709 13.6036 3.6372 0.8795 -7.1250 0.0000 -0.0000 -10.6177 33.5797 3.0173 -0.0000 -0.0000 0.0000 80.6948 -14.4223 54.0185 -96.1615 59.8561 -65.3335 0.0000 0.0000 8.9247 -12.9462 -0.9436 0.2169 7.1250 -0.0000 -0.0000 10.7964 -30.8422 3.7944
0.9324 15.6768 23.4328 -182.8670 0.1446 -173.7860 0.0000 0.0000 0.0000 -24.0136 -13.1153 -23.6846 4.2398 12.4728 37.4257 -1.0741 18.2209 -3.6593 0.1509 -2.5030 -6.8981 0.0000 0.0000 0.0000 18.1062 -2.5055 -4.4988 -12.2127 -18.4791 66.6615 0.5535 -21.5086 10.4595 -0.6326 5.0892 -14.1630 -4.8982 2.9491 -2.0899 -2.1977 4.0405 1.3559 0.6333 1.9070 2.3862 -3.9540 -3.0213 -38.3903 4.0502 -6.7473 40.7057 0.6335 -3.0146 26.0215 0.0000 0.0000 0.0000 -70.7933 24.6128 58.9508 104.3985 -59.2020 -72.4360 -0.0000 -0.0000 17.6771 13.9409 3.9030 0.9680 -7.1250 0.0000 -0.0000 -10.3822 33.8615 2.8764 0.0000 0.0000 0.0000 81.5636 -15.8905 51.9978 -93.1472 59.9625 -62.7252 0.0000 0.0000 9.2607 -13.3922 -1.2120 0.2885 7.1250 -0.0000 -0.0000 10.4773 -31.1223 3.6073
0.9262 15.5861 23.1360 -183.5900 0.0486 -174.1190 0.0000 0.0000 0.0000 -25.2468 -12.6350 -22.5052 4.4249 12.7053 38.2750 -1.2151 19.1362 -5.4712 0.1435 -2.4410 -6.7260 0.0000 0.0000 0.0000 17.0081 -2.2579 -6.2720 -13.3200 -18.8947 70.1164 0.6325 -21.1010 9.2662 -0.6455 5.1396 -14.3071 -5.6329 2.7954 -1.5429 -2.4678 3.7954 1.5150 0.7284 1.7613 2.2255 -3.6257 -2.9537 -38.1823 4.1811 -6.8224 40.3024 0.6339 -2.9460 25.5115 0.0000 -0.0000 0.0000 -71.3553 22.7022 59.3764 102.4563 -59.4055 -70.7659 -0.0000 -0.0000 17.5507 14.3333 4.2440 1.0833 -7.1250 0.0000 -0.0000 -10.1112 34.2232 2.7093 0.0000 -0.0000 0.0000 82.5481 -17.3030 49.7714 -89.7940 59.9998 -59.8216 0.0000 0.0000 9.5242 -13.8775 -1.6295 0.4025 7.1250 -0.0000 -0.0000 10.1430 -31.5557 3.3817
0.9235 15.5010 22.8446 -184.3540 0.0811 -174.4780 0.0000 0.0000 0.0000 -26.5006 -11.9606 -21.2381 4.5579 12.8680 38.8762 -1.3444 20.0093 -6.9862 0.1429 -2.4363 -6.7130 0.0000 0.0000 0.0000 15.8572 -1.8415 -8.0966 -14.4229 -19.2373 73.4920 0.7149 -20.7420 7.9940 -0.6642 5.2122 -14.5147 -6.4370 2.7037 -0.9595 -2.7757 3.6141 1.7048 0.8254 1.6413 2.0744 -3.1580 -2.8763 -38.0382 4.2397 -6.9065 39.8278 0.5631 -2.8609 24.9585 0.0000 -0.0000 0.0000 -71.8793 20.6973 59.8335 100.6042 -59.5708 -69.1703 -0.0000 -0.0000 17.5273 14.7179 4.6692 1.2250 -7.1250 0.0000 -0.0000 -9.8571 34.6720 2.5305 0.0000 -0.0000 0.0000 83.5965 -18.6644 47.3770 -86.1657 59.9444 -56.6800 0.0000 0.0000 9.7370 -14.4169 -2.2011 0.5657 7.1250 -0.0000 -0.0000 9.7820 -32.1499 3.1162
0.9234 15.4236 22.5573 -185.1150 0.2250 -174.8230 0.0000 0.0000 0.0000 -27.7083 -11.1779 -19.9326 4.6445 12.9720 39.2636 -1.4683 20.8512 -8.2189 0.1488 -2.4854 -6.8492 0.0000 0.0000 0.0000 14.7136 -1.2444 -10.0014 -15.4937 -19.5060 76.7193 0.7970 -20.4524 6.6912 -0.6859 5.2950 -14.7518 -7.2712 2.6536 -0.3979 -3.0907 3.4729 1.9050 0.9346 1.5365 1.9453 -2.6483 -2.7923 -37.9340 4.2837 -6.9944 39.3340 0.4748 -2.7746 24.4237 -0.0000 -0.0000 0.0000 -72.4029 18.6806 60.2721 98.9891 -59.6925 -67.7768 -0.0000 -0.0000 17.6410 15.0607 5.1398 1.3809 -7.1250 0.0000 -0.0000 -9.6429 35.1672 2.3565 -0.0000 -0.0000 0.0000 84.6274 -19.9765 44.8960 -82.3487 59.7776 -53.3787 0.0000 0.0000 9.9165 -14.9695 -2.8693 0.7668 7.1250 -0.0000 -0.0000 9.4197 -32.8470 2.8375
